<svg width="48" height="48" viewBox="0 0 48 48" fill="none" xmlns="http://www.w3.org/2000/svg">
  <rect width="48" height="48" rx="8" fill="#F3F4F6"/>
  <!-- Wine bottle outline -->
  <path d="M19 12V10C19 9.44772 19.4477 9 20 9H28C28.5523 9 29 9.44772 29 10V12" stroke="#9CA3AF" stroke-width="1.5" stroke-linecap="round"/>
  <!-- Bottle body -->
  <path d="M20 12C20 12 20 14 21 16C22 18 23 20 23 24V36C23 37.1046 23.8954 38 25 38H23C24.1046 38 25 37.1046 25 36V24C25 20 26 18 27 16C28 14 28 12 28 12" stroke="#9CA3AF" stroke-width="1.5" stroke-linecap="round"/>
  <rect x="21" y="36" width="6" height="2" rx="1" fill="#9CA3AF"/>
  <!-- Wine level indicator -->
  <path d="M23.5 20V32" stroke="#722F37" stroke-width="1" opacity="0.6"/>
  <circle cx="24" cy="28" r="1" fill="#722F37" opacity="0.4"/>
</svg>
